<?xml version="1.0" encoding="utf-8"?>
<!DOCTYPE svg PUBLIC "-//W3C//DTD SVG 1.1//EN" "http://www.w3.org/Graphics/SVG/1.1/DTD/svg11.dtd">
<svg version="1.1" id="图形" xmlns="http://www.w3.org/2000/svg" xmlns:xlink="http://www.w3.org/1999/xlink" x="0px" y="0px" width="1024px" height="1024px" viewBox="0 0 1024 1024" enable-background="new 0 0 1024 1024" xml:space="preserve">
  <path fill="#272636" d="M937.728-26.5536 723.5072 189.4643c-2.4934 2.4996-5.248 4.4083-7.8787 6.4881 36.1861 55.9862 57.3164 122.6742 57.3164 194.5078 0 197.3463-158.6268 357.3023-354.43 357.3023-195.6936 0-354.43-159.956-354.43-357.3023 0-197.374 158.7364-357.2951 354.43-357.2951 71.2274 0 137.4546 21.3576 193.0762 57.8458 2.0255-2.7136 3.884-5.4129 6.3365-7.893l214.2484-216.0445c14.6278-14.7036 33.6783-22.0324 52.7565-22.0324 19.0915 0 38.1553 7.3277 52.7698 21.9976C966.8055-103.5523 966.8055-55.9404 937.728-26.5536M418.5149 145.9924c-133.6812 0-242.4986 109.6847-242.4986 244.4677 0 134.7625 108.8184 244.4759 242.4986 244.4759s242.4986-109.7134 242.4986-244.4759C661.0135 255.6782 552.1951 145.9924 418.5149 145.9924" transform="translate(0, 812) scale(1, -1)"/>
</svg>
