<?xml version="1.0" encoding="utf-8"?>
<!DOCTYPE svg PUBLIC "-//W3C//DTD SVG 1.1//EN" "http://www.w3.org/Graphics/SVG/1.1/DTD/svg11.dtd">
<svg version="1.1" id="图形" xmlns="http://www.w3.org/2000/svg" xmlns:xlink="http://www.w3.org/1999/xlink" x="0px" y="0px" width="1000px" height="1024px" viewBox="0 0 1000 1024" enable-background="new 0 0 1000 1024" xml:space="preserve">
  <path fill="#272636" d="M514.1445 754.6368c-241.5811 0-437.4164-195.8572-437.4164-437.3974 0-241.5812 195.8343-437.3974 437.4164-437.3974 241.5611 0 437.4254 195.8162 437.4254 437.3974C951.5699 558.7795 755.7056 754.6368 514.1445 754.6368M604.1641 317.2393l159.3715-159.357-90.0077-89.996L514.1645 227.2323 354.812 67.8774l-89.9997 89.996 159.3525 159.356L264.8123 476.5553l89.9997 90.037 159.3335-159.347 159.3615 159.326 90.0087-89.985L604.1641 317.2393z" transform="translate(0, 812) scale(1, -1)"/>
</svg>
